<?xml version="1.0" encoding="UTF-8" standalone="no"?>
<!DOCTYPE svg PUBLIC "-//W3C//DTD SVG 1.1//EN" "http://www.w3.org/Graphics/SVG/1.1/DTD/svg11.dtd">
<svg width="100%" height="100%" viewBox="0 0 30 30" version="1.1" xmlns="http://www.w3.org/2000/svg" xmlns:xlink="http://www.w3.org/1999/xlink" xml:space="preserve" xmlns:serif="http://www.serif.com/" style="fill-rule:evenodd;clip-rule:evenodd;stroke-linejoin:round;stroke-miterlimit:2;">
    <g transform="matrix(1,0,0,1,-159.083,0.0354022)">
        <path id="Path_153" d="M188.585,14.981C188.63,20.936 185.079,26.363 179.605,28.706C177.775,29.49 175.803,29.886 173.812,29.871C171.842,29.885 169.892,29.488 168.084,28.706C166.336,27.951 164.749,26.867 163.411,25.512C162.069,24.149 160.995,22.546 160.246,20.786C159.464,18.953 159.068,16.979 159.083,14.986C159.071,13 159.459,11.032 160.224,9.2C160.957,7.429 162.016,5.811 163.347,4.431C164.681,3.055 166.267,1.949 168.019,1.173C169.842,0.362 171.817,-0.05 173.812,-0.035L188.585,-0.035L188.585,14.981ZM181.694,14.981L181.694,6.867L173.812,6.867C171.726,6.869 169.727,7.718 168.278,9.219C167.562,9.971 166.993,10.849 166.598,11.809C166.179,12.814 165.966,13.892 165.973,14.981C165.964,16.061 166.168,17.131 166.573,18.132C166.952,19.076 167.515,19.934 168.231,20.657C168.949,21.373 169.798,21.944 170.731,22.34C172.706,23.174 174.936,23.174 176.911,22.34C177.84,21.936 178.687,21.366 179.411,20.657C180.137,19.939 180.709,19.079 181.091,18.132C181.496,17.131 181.7,16.061 181.691,14.981" style="fill:rgb(229,9,20);fill-rule:nonzero;"/>
    </g>
</svg>
